<svg width="25" height="24" viewBox="0 0 25 24" fill="none" xmlns="http://www.w3.org/2000/svg">
<path d="M7.97644 10.6462L7.12289 11.4997H8.33H19.5C19.7739 11.4997 20 11.7259 20 11.9997C20 12.2736 19.7739 12.4997 19.5 12.4997H8.33H7.12289L7.97644 13.3533L12.8564 18.2333C13.0512 18.428 13.0512 18.7414 12.8564 18.9362C12.6617 19.1309 12.3483 19.1309 12.1535 18.9362L5.56355 12.3462C5.36881 12.1514 5.36881 11.838 5.56355 11.6433L12.1535 5.05328C12.3483 4.85854 12.6617 4.85854 12.8564 5.05328C13.0512 5.24802 13.0512 5.57144 12.8564 5.76617L7.97644 10.6462Z" fill="#DB1471" stroke="#DB1471"/>
</svg>
