<svg width="119" height="97" viewBox="0 0 119 97" fill="none" xmlns="http://www.w3.org/2000/svg">
<circle cx="48" cy="48.5" r="48" fill="#DB1471" fill-opacity="0.5"/>
<g clip-path="url(#clip0_940_419681)">
<path d="M118.03 75.2505C117.25 67.1366 108.287 60.3489 100.538 64.4666L97.901 55.89L104.161 31.062C105.76 24.6035 104.161 16.4986 99.4288 6.96077C98.2006 4.1543 93.8604 4.5904 93.1158 7.53037L88.0042 24.0369L82.9193 7.62234C82.1925 4.6527 77.8048 4.29967 76.6003 7.10317C71.8774 16.638 70.2902 24.737 71.8833 31.1895L78.1133 55.9108L75.4433 64.5734C62.1823 58.3968 52.7602 76.891 60.6278 86.9718C66.2407 95.3971 78.766 93.0564 81.8929 83.7114C81.9967 83.9339 86.3814 69.326 86.5298 69.0056L89.2532 68.2254L93.7477 82.8095C94.694 85.5952 96.2604 88.022 98.5863 89.8287C108.489 97.3076 120.219 86.0699 118.03 75.2505ZM76.1998 30.1067C74.9954 25.2147 76.096 18.9402 79.4632 11.4671L85.6932 31.5485L80.6736 47.7465L76.1998 30.1067ZM84.1505 65.054C83.4296 65.2617 82.86 65.8194 82.6375 66.5374L78.057 81.2965C76.2799 87.8677 68.4272 90.2826 64.2501 84.37C60.9452 79.7123 61.6543 72.4529 66.4514 69.0768C68.4034 67.7092 70.9221 67.4541 73.1086 68.4004C74.8025 69.1065 76.5351 71.5303 78.324 69.5841C78.5435 69.3438 78.7067 69.0561 78.8016 68.7446L96.5897 11.3544C99.9599 18.8393 101.04 25.099 99.8531 29.9821L91.5464 62.9447L84.1505 65.054ZM111.764 84.2662V84.2602C107.961 89.891 100.07 88.1436 98.1591 81.8572L93.537 66.9675C94.7415 66.5255 95.5781 65.4486 95.8125 64.1996L97.1801 68.6348C97.5391 69.8096 98.7851 70.4712 99.9599 70.1092C101.031 69.6702 101.778 68.6615 102.903 68.2818C111.877 64.9176 116.742 78.0006 111.764 84.2662Z" fill="#0F1C35"/>
<path d="M59.6459 58.9907C62.4405 59.3585 63.1376 55.137 60.3579 54.6C55.4391 53.5261 40.4071 54.1016 43.2847 66.348L47.263 86.4946C47.4143 87.1591 46.8863 87.8148 46.2039 87.8118H41.1606C37.8409 87.8029 35.1531 85.1092 35.1531 81.7895V17.2348C35.159 12.7937 38.7576 9.19812 43.1987 9.19219H60.0019C61.2301 9.19219 62.2269 8.19539 62.2269 6.96719C62.2269 5.73899 61.2301 4.74219 60.0019 4.74219H43.1987C36.3012 4.75109 30.712 10.3373 30.7061 17.2348V81.7895C30.712 87.5686 35.3934 92.2499 41.1725 92.2589H46.2158C49.6809 92.2915 52.3687 88.9629 51.6211 85.5838L47.6457 65.4372C45.7589 57.5993 56.077 58.6613 59.6459 58.9907Z" fill="#0F1C35"/>
<path d="M60.0019 14.6484H41.7688C38.8644 14.6603 38.8555 19.0866 41.7688 19.0984H60.0019C62.9033 19.0866 62.9152 14.6603 60.0019 14.6484Z" fill="#0F1C35"/>
<path d="M60.0019 24.5566H41.7688C38.8644 24.5685 38.8555 28.9948 41.7688 29.0066H60.0019C62.9033 28.9948 62.9152 24.5685 60.0019 24.5566Z" fill="#0F1C35"/>
<path d="M60.0019 34.4648H41.7688C38.8644 34.4767 38.8555 38.903 41.7688 38.9148H60.0019C62.9033 38.903 62.9152 34.4767 60.0019 34.4648Z" fill="#0F1C35"/>
<path d="M41.7688 44.3711C38.8644 44.383 38.8555 48.8092 41.7688 48.8211H60.0019C62.9063 48.8092 62.9152 44.383 60.0019 44.3711H41.7688Z" fill="#0F1C35"/>
<path d="M88.0043 53.6211C84.7499 53.6359 84.7499 58.5843 88.0043 58.5992C91.2587 58.5843 91.2587 53.6359 88.0043 53.6211Z" fill="#0F1C35"/>
</g>
<defs>
<clipPath id="clip0_940_419681">
<rect width="89" height="89" fill="white" transform="translate(30 4)"/>
</clipPath>
</defs>
</svg>
