<svg width="33" height="33" viewBox="0 0 33 33" fill="none" xmlns="http://www.w3.org/2000/svg">
<path d="M14.3036 3.45947H19.637C20.3442 3.45947 21.0225 3.74042 21.5226 4.24052C22.0227 4.74062 22.3036 5.4189 22.3036 6.12614V8.79281H27.637C28.3442 8.79281 29.0225 9.07376 29.5226 9.57385C30.0227 10.074 30.3036 10.7522 30.3036 11.4595V26.1261C30.3036 26.8334 30.0227 27.5117 29.5226 28.0118C29.0225 28.5119 28.3442 28.7928 27.637 28.7928H6.30363C4.82363 28.7928 3.63696 27.5928 3.63696 26.1261V11.4595C3.63696 9.97947 4.82363 8.79281 6.30363 8.79281H11.637V6.12614C11.637 4.64614 12.8236 3.45947 14.3036 3.45947ZM19.637 8.79281V6.12614H14.3036V8.79281H19.637Z" fill="#DB1471"/>
</svg>
