<svg width="19" height="19" viewBox="0 0 19 19" fill="none" xmlns="http://www.w3.org/2000/svg">
<g clip-path="url(#clip0_98_19161)">
<path fill-rule="evenodd" clip-rule="evenodd" d="M17.6595 9.24527C17.6595 8.60827 17.6025 7.99427 17.4955 7.40527H9.01953V10.8863H13.8635C13.6545 12.0113 13.0205 12.9643 12.0675 13.6033V15.8613H14.9755C16.6775 14.2943 17.6595 11.9873 17.6595 9.24627V9.24527Z" fill="#4285F4"/>
<path fill-rule="evenodd" clip-rule="evenodd" d="M9.02249 18.0449C11.4525 18.0449 13.4895 17.2389 14.9785 15.8649L12.0695 13.6049C11.2635 14.1449 10.2335 14.4649 9.02249 14.4649C6.67849 14.4649 4.69449 12.8809 3.98649 10.7539H0.979492V13.0859C2.45949 16.0279 5.50449 18.0449 9.02249 18.0449Z" fill="#34A853"/>
<path fill-rule="evenodd" clip-rule="evenodd" d="M3.98353 10.7569C3.80353 10.2169 3.70153 9.63988 3.70153 9.04688C3.70153 8.45388 3.80353 7.87688 3.98353 7.33688V5.00488H0.976531C0.366531 6.21988 0.0195312 7.59488 0.0195312 9.04688C0.0195312 10.4989 0.367531 11.8739 0.976531 13.0889L3.98353 10.7569Z" fill="#FBBC05"/>
<path fill-rule="evenodd" clip-rule="evenodd" d="M9.02249 3.62492C10.3435 3.62492 11.5305 4.07892 12.4625 4.96992L15.0445 2.38992C13.4835 0.935922 11.4475 0.0449219 9.02149 0.0449219C5.50449 0.0449219 2.45949 2.06192 0.979492 5.00292L3.98649 7.33492C4.69449 5.20792 6.67849 3.62492 9.02249 3.62492Z" fill="#EA4335"/>
</g>
<defs>
<clipPath id="clip0_98_19161">
<rect width="18" height="18" fill="white" transform="translate(0.0195312 0.0449219)"/>
</clipPath>
</defs>
</svg>
