<svg width="31" height="31" viewBox="0 0 31 31" fill="none" xmlns="http://www.w3.org/2000/svg">
<rect x="0.467773" y="0.5" width="29.7874" height="29.8235" rx="14.8937" fill="white"/>
<path d="M12.8818 15.4508C12.8818 14.077 13.9934 12.9631 15.3651 12.9631C16.7368 12.9631 17.8491 14.077 17.8491 15.4508C17.8491 16.8246 16.7368 17.9385 15.3651 17.9385C13.9934 17.9385 12.8818 16.8246 12.8818 15.4508ZM11.539 15.4508C11.539 17.5672 13.2519 19.2827 15.3651 19.2827C17.4783 19.2827 19.1913 17.5672 19.1913 15.4508C19.1913 13.3344 17.4783 11.6189 15.3651 11.6189C13.2519 11.6189 11.539 13.3344 11.539 15.4508ZM18.4486 11.4669C18.4485 11.6441 18.5009 11.8172 18.5991 11.9645C18.6973 12.1118 18.8369 12.2267 19.0003 12.2945C19.1636 12.3623 19.3434 12.3802 19.5169 12.3457C19.6903 12.3112 19.8497 12.226 19.9748 12.1008C20.0999 11.9756 20.1851 11.8161 20.2197 11.6424C20.2542 11.4687 20.2366 11.2886 20.169 11.1249C20.1014 10.9613 19.9868 10.8214 19.8398 10.7229C19.6928 10.6245 19.52 10.5719 19.3431 10.5718H19.3428C19.1057 10.5719 18.8784 10.6662 18.7108 10.8341C18.5431 11.0019 18.4488 11.2295 18.4486 11.4669ZM12.3548 21.5251C11.6283 21.492 11.2335 21.3708 10.9711 21.2684C10.6232 21.1328 10.375 20.9712 10.114 20.7102C9.85301 20.4492 9.69146 20.2008 9.55663 19.8524C9.45433 19.5897 9.33332 19.1942 9.3003 18.4666C9.26418 17.68 9.25696 17.4437 9.25696 15.4509C9.25696 13.458 9.26477 13.2224 9.3003 12.4351C9.33338 11.7075 9.45529 11.3127 9.55663 11.0493C9.69206 10.7009 9.85337 10.4523 10.114 10.1909C10.3746 9.92955 10.6226 9.76776 10.9711 9.63272C11.2334 9.53028 11.6283 9.40908 12.3548 9.37601C13.1402 9.33983 13.3762 9.33261 15.3651 9.33261C17.3541 9.33261 17.5903 9.34043 18.3764 9.37601C19.1028 9.40914 19.497 9.53123 19.7601 9.63272C20.108 9.76776 20.3562 9.92991 20.6172 10.1909C20.8782 10.4519 21.0391 10.7009 21.1745 11.0493C21.2768 11.312 21.3978 11.7075 21.4309 12.4351C21.467 13.2224 21.4742 13.458 21.4742 15.4509C21.4742 17.4437 21.467 17.6793 21.4309 18.4666C21.3978 19.1942 21.2762 19.5896 21.1745 19.8524C21.0391 20.2008 20.8778 20.4494 20.6172 20.7102C20.3566 20.971 20.108 21.1328 19.7601 21.2684C19.4978 21.3708 19.1028 21.492 18.3764 21.5251C17.5909 21.5613 17.355 21.5685 15.3651 21.5685C13.3753 21.5685 13.14 21.5613 12.3548 21.5251ZM12.2931 8.03347C11.4999 8.06965 10.9578 8.19562 10.4845 8.38009C9.99423 8.5706 9.57922 8.82617 9.16451 9.24085C8.7498 9.65553 8.49526 10.0718 8.30504 10.5628C8.12085 11.0372 7.99507 11.5797 7.95894 12.3742C7.92222 13.1698 7.91382 13.4242 7.91382 15.4508C7.91382 17.4774 7.92222 17.7318 7.95894 18.5274C7.99507 19.3219 8.12085 19.8644 8.30504 20.3388C8.49526 20.8295 8.74986 21.2462 9.16451 21.6607C9.57916 22.0752 9.99423 22.3305 10.4845 22.5215C10.9587 22.706 11.4999 22.8319 12.2931 22.8681C13.088 22.9043 13.3416 22.9133 15.3651 22.9133C17.3887 22.9133 17.6427 22.9049 18.4372 22.8681C19.2305 22.8319 19.7721 22.706 20.2458 22.5215C20.7357 22.3305 21.1511 22.0754 21.5658 21.6607C21.9805 21.2461 22.2345 20.8295 22.4252 20.3388C22.6094 19.8644 22.7358 19.3219 22.7713 18.5274C22.8075 17.7312 22.8159 17.4774 22.8159 15.4508C22.8159 13.4242 22.8075 13.1698 22.7713 12.3742C22.7352 11.5797 22.6094 11.0369 22.4252 10.5628C22.2345 10.0721 21.9798 9.65618 21.5658 9.24085C21.1517 8.82552 20.7357 8.5706 20.2464 8.38009C19.7721 8.19562 19.2304 8.06906 18.4378 8.03347C17.6433 7.9973 17.3893 7.98828 15.3657 7.98828C13.3422 7.98828 13.088 7.9967 12.2931 8.03347Z" fill="#252533"/>
</svg>
