<svg width="30" height="31" viewBox="0 0 30 31" fill="none" xmlns="http://www.w3.org/2000/svg">
<rect x="0.212402" y="0.5" width="29.7874" height="29.8235" rx="14.8937" fill="white"/>
<path d="M12.8704 21.4554V13.3992H10.1983V21.4554H12.8707H12.8704ZM11.5349 12.2994C12.4665 12.2994 13.0465 11.6808 13.0465 10.9077C13.0291 10.117 12.4665 9.51562 11.5526 9.51562C10.6381 9.51562 10.0408 10.117 10.0408 10.9076C10.0408 11.6807 10.6206 12.2994 11.5174 12.2994H11.5347L11.5349 12.2994ZM14.3495 21.4554H17.0214V16.9569C17.0214 16.7164 17.0388 16.4754 17.1094 16.3036C17.3025 15.8223 17.7422 15.3242 18.4805 15.3242C19.4472 15.3242 19.8341 16.0629 19.8341 17.146V21.4554H22.5059V16.8362C22.5059 14.3618 21.1879 13.2103 19.4299 13.2103C17.9885 13.2103 17.3555 14.0176 17.0038 14.5674H17.0216V13.3994H14.3496C14.3845 14.1552 14.3494 21.4556 14.3494 21.4556L14.3495 21.4554Z" fill="#252533"/>
</svg>
