<svg width="127" height="97" viewBox="0 0 127 97" fill="none" xmlns="http://www.w3.org/2000/svg">
<circle cx="48.5" cy="48.5" r="48" fill="#DB1471" fill-opacity="0.5"/>
<path d="M97.0855 44.733L97.251 44.411L97.1719 44.0576C96.8015 42.4027 96.146 38.9582 96.2039 35.6575C96.2328 34.0057 96.4402 32.4514 96.9118 31.1949C97.3797 29.9481 98.0772 29.0673 99.056 28.6038C100.357 27.9888 102.342 28.0258 104.647 28.6185C106.909 29.2001 109.288 30.2683 111.24 31.4637C112.35 32.1467 113.805 33.163 114.984 34.3936C116.179 35.6415 116.967 36.982 117.004 38.3202L117.004 38.321C117.036 39.3947 116.596 40.4744 115.76 41.5554C114.923 42.6381 113.735 43.658 112.401 44.5793C109.736 46.4215 106.658 47.7566 105.154 48.3549L104.824 48.4861L104.651 48.7959L94.8272 66.3639L94.5582 66.845L94.8213 67.3294C96.8697 71.0996 96.673 75.8461 96.4133 81.1538C96.3174 82.9914 96.22 84.9352 96.22 86.9C96.22 87.2277 95.9477 87.5 95.62 87.5H40.964C40.6363 87.5 40.364 87.2277 40.364 86.9C40.364 84.9351 40.2666 82.9913 40.1707 81.1535C39.8124 73.8229 39.5644 67.5516 45.1315 63.5521L45.548 63.2529V62.74V32.244C45.548 19.7074 55.7412 9.5 68.276 9.5C80.8115 9.5 91.0207 19.7083 91.036 32.2452V52.372L92.9255 52.829L97.0855 44.733ZM88.4067 61.8817L89.804 62.4867V60.964V32.244C89.804 20.3647 80.1573 10.7 68.276 10.7C56.4112 10.7 46.748 20.3642 46.748 32.244V60.964V62.4867L48.1454 61.8817C49.6362 61.2361 51.3482 60.6646 53.41 60.2306L53.4161 60.2293C57.2274 59.4023 60.0622 56.2735 60.5637 52.4046L60.6289 51.9017L60.2617 51.5519C56.773 48.2286 54.428 42.7751 54.428 36.548V36.4132C54.4486 36.1012 54.7002 35.8567 54.9535 35.8308L54.9573 35.8304C63.23 34.9543 70.3536 29.2194 74.1039 20.6614L74.104 20.6614L74.1072 20.6539C74.1743 20.4974 74.3262 20.3627 74.5099 20.312C74.6661 20.2689 74.849 20.2951 75.0139 20.4114C79.3267 23.6402 82.108 29.7861 82.108 36.548C82.108 42.777 79.7778 48.2298 76.2903 51.5519L75.9226 51.9022L75.9885 52.4057C76.4895 56.2352 79.319 59.4191 83.1404 60.2302L83.142 60.2306C85.2039 60.6646 86.9158 61.2361 88.4067 61.8817ZM79.0895 72.5811L79.3562 71.8364L78.6929 71.4055L75.2269 69.1534C75.0554 69.0372 74.9455 68.8361 74.9396 68.6461C74.9344 68.464 75.0242 68.2773 75.2007 68.1518C75.2016 68.1511 75.2026 68.1505 75.2035 68.1498L79.9647 64.8586L80.5356 64.4639L80.3655 63.791L79.6295 60.879L79.2961 59.5597L78.1366 60.2719C75.145 62.1094 71.7907 63.02 68.42 63.02C64.9754 63.02 61.5138 62.0488 58.4761 60.1198L57.312 59.3807L56.9711 60.7167L56.1871 63.7887L56.015 64.4629L56.5874 64.8586L61.3485 68.1498C61.3494 68.1504 61.3502 68.151 61.351 68.1516C61.5018 68.259 61.6069 68.4526 61.6118 68.6608C61.6009 68.8629 61.4942 69.0446 61.3352 69.1468L61.3312 69.1495L57.8592 71.4055L57.1959 71.8364L57.4626 72.5811C58.3503 75.0602 61.0877 81.1247 67.7002 85.7816L68.276 86.1871L68.8518 85.7816C75.4643 81.1247 78.2017 75.0602 79.0895 72.5811ZM56.4913 36.8263L55.6139 36.9765L55.6614 37.8655C55.8949 42.2268 57.3258 46.1789 59.5455 49.0638C61.7649 51.9485 64.8255 53.82 68.276 53.82C71.8984 53.82 75.0842 51.7639 77.3253 48.6319C79.5678 45.498 80.924 41.2211 80.924 36.548C80.924 31.1573 79.0808 26.0737 75.9063 22.7963L74.9398 21.7984L74.3003 23.0317C70.3932 30.5666 63.9037 35.5578 56.4913 36.8263ZM75.1557 54.1229L74.8 52.9085L73.7007 53.5353C72.0143 54.4969 70.1836 55.02 68.276 55.02C66.369 55.02 64.5533 54.4971 62.8808 53.5499L61.7786 52.9256L61.4272 54.1427C61.0175 55.562 60.3314 56.8451 59.4143 57.9368L58.6513 58.8451L59.6756 59.4435C65.024 62.5676 71.5952 62.601 76.9757 59.5628L78.0348 58.9647L77.2433 58.0412C76.2873 56.926 75.5834 55.5829 75.1557 54.1229ZM53.6799 61.4074L53.6799 61.4074L53.6687 61.4097C47.3587 62.7472 43.9988 65.1206 42.417 68.6622C41.647 70.3861 41.3356 72.3102 41.2379 74.3714C41.1409 76.4164 41.2526 78.6656 41.3713 81.0539L41.3731 81.0905C41.3731 81.091 41.3731 81.0915 41.3732 81.092C41.4372 82.4677 41.5006 83.88 41.5323 85.3377L41.5535 86.316H42.532H63.588H66.2021L64.2554 84.5713C57.6835 78.6814 55.9928 71.9434 55.9368 71.7084L55.9355 71.703C55.8765 71.4609 55.9762 71.2076 56.1904 71.0707L56.1955 71.0674L58.6915 69.4514L59.9435 68.6408L58.7181 67.7904L55.0127 65.219C55.0118 65.2184 55.0109 65.2178 55.01 65.2171C54.8035 65.0696 54.7078 64.8038 54.7657 64.5685C54.7658 64.5679 54.766 64.5672 54.7662 64.5665L55.2928 62.5078L55.6963 60.9306L54.1071 61.2838C53.9904 61.3097 53.878 61.3465 53.8154 61.3669C53.8089 61.3691 53.8029 61.371 53.7975 61.3728C53.7227 61.3971 53.6966 61.4041 53.6799 61.4074ZM94.1511 68.6622C92.5732 65.1295 89.2262 62.7592 82.947 61.4199C82.916 61.4094 82.8822 61.3964 82.8077 61.3694C82.7226 61.3387 82.5946 61.2943 82.4401 61.2634L80.8812 60.9516L81.2752 62.4918L81.8015 64.5492C81.8614 64.8021 81.7647 65.0538 81.5577 65.2014C81.5569 65.2019 81.5561 65.2025 81.5553 65.203L77.8499 67.7745L76.6245 68.6248L77.8765 69.4354L80.3725 71.0514L80.3776 71.0547C80.5918 71.1916 80.6916 71.4449 80.6325 71.687L80.6306 71.6947L80.6289 71.7024C80.5744 71.942 78.8858 78.6797 72.3136 84.5544L70.3608 86.3H72.98H94.02H94.9983L95.0198 85.322C95.0445 84.1954 95.0983 83.0912 95.1514 81.9988C95.1661 81.6956 95.1809 81.3933 95.1949 81.0916C95.1949 81.0912 95.1949 81.0909 95.1949 81.0905L95.1968 81.0538C95.3154 78.6655 95.4271 76.4164 95.3301 74.3714C95.2324 72.3102 94.9211 70.3861 94.1511 68.6622ZM92.8649 64.7591L93.8005 65.6947L94.4452 64.5393L103.053 49.1153L103.548 48.2295L102.655 47.7479L99.0068 45.7799L98.1093 45.2957L97.6428 46.2025L91.1148 58.8905L91.004 59.1058V59.348V62.724V63.2435L91.4291 63.5422C91.9658 63.9193 92.434 64.3282 92.8649 64.7591ZM104.029 47.1104L104.442 47.3306L104.876 47.1546C107.137 46.237 109.799 44.8754 111.905 43.4013C112.956 42.666 113.906 41.8772 114.599 41.0743C115.268 40.2994 115.829 39.361 115.804 38.3468L115.804 38.3422C115.777 37.4444 115.202 36.4556 114.387 35.5339C113.534 34.568 112.28 33.5196 110.608 32.4961C108.627 31.273 106.456 30.3376 104.531 29.8132C103.568 29.5509 102.644 29.3851 101.821 29.3454C101.017 29.3067 100.214 29.383 99.5606 29.6919L99.5599 29.6923C98.6266 30.1344 98.1392 31.1133 97.8668 32.0494C97.5811 33.0315 97.453 34.2373 97.4282 35.5105C97.3784 38.0662 97.742 41.101 98.2906 43.6393L98.3879 44.0894L98.7932 44.3081L100.009 44.9641L100.89 45.4395L101.365 44.5577L103.413 40.7497L103.415 40.7447C103.569 40.4548 103.921 40.3429 104.223 40.5033C104.513 40.6569 104.625 41.0074 104.466 41.3094C104.465 41.3101 104.465 41.3107 104.465 41.3113L102.419 45.1143L101.944 45.9981L102.829 46.4704L104.029 47.1104Z" fill="white" stroke="#0F1C35" stroke-width="2"/>
</svg>
