<svg width="127" height="97" viewBox="0 0 127 97" fill="none" xmlns="http://www.w3.org/2000/svg">
<circle cx="48.5" cy="48.5" r="48" fill="#DB1471" fill-opacity="0.5"/>
<g clip-path="url(#clip0_940_419724)">
<path d="M69.6287 62.67H39.8687V35.7345C39.8687 28.4108 45.8068 22.4727 53.1305 22.4727H58.1433L61.856 35.4685L69.6287 62.67Z" fill="white"/>
<path d="M69.6287 62.6703H39.8687V56.4247L61.8562 35.4688L69.6287 62.6703Z" fill="white"/>
<path d="M104.797 52.6612L87.4198 38.3242H70.8602L53.4829 52.6612C49.3954 56.0338 51.78 62.6711 57.0792 62.6711H79.1402L79.14 62.6702H79.1408L79.1406 62.6711H101.202C106.5 62.6711 108.885 56.0336 104.797 52.6612Z" fill="white"/>
<path d="M117.97 76.2603H39.0301C35.2771 76.2603 32.2349 73.2179 32.2349 69.4651C32.2349 65.7121 35.2772 62.6699 39.0301 62.6699H117.97C121.723 62.6699 124.765 65.7123 124.765 69.4651C124.765 73.2181 121.723 76.2603 117.97 76.2603Z" fill="white"/>
<path d="M124.765 69.4661C124.765 71.3422 124.004 73.0425 122.776 74.2708C121.545 75.5014 119.847 76.2624 117.969 76.2624H39.0289C35.2769 76.2624 32.2349 73.2182 32.2349 69.4661C32.2349 68.2286 32.5656 67.0697 33.1463 66.0703C34.3191 68.1013 36.5144 69.4661 39.0289 69.4661H117.969C119.847 69.4661 121.545 68.7051 122.776 67.4768C123.194 67.0581 123.557 66.5861 123.854 66.0703C124.434 67.0697 124.765 68.2286 124.765 69.4661Z" fill="white"/>
<path d="M48.5632 76.2617H40.7268V93.3822H48.5632V76.2617Z" fill="white"/>
<path d="M116.275 76.2617H108.438V93.3822H116.275V76.2617Z" fill="white"/>
<path d="M79.1407 57.0631C86.2639 57.0631 92.0384 51.2886 92.0384 44.1653C92.0384 37.0421 86.2639 31.2676 79.1407 31.2676C72.0174 31.2676 66.2429 37.0421 66.2429 44.1653C66.2429 51.2886 72.0174 57.0631 79.1407 57.0631Z" fill="white"/>
<path d="M92.0371 44.1648C92.0371 51.2896 86.2632 57.0635 79.1406 57.0635C72.0158 57.0635 66.2419 51.2896 66.2419 44.1648C66.2419 43.1123 66.3668 42.0897 66.6074 41.1113C67.9791 46.7603 73.0683 50.9541 79.1406 50.9541C85.2106 50.9541 90.2997 46.7601 91.6714 41.1113C91.9122 42.0897 92.0371 43.1121 92.0371 44.1648Z" fill="white"/>
<path d="M54.7891 29.4146C61.9123 29.4146 67.6869 23.6401 67.6869 16.5169C67.6869 9.39366 61.9123 3.61914 54.7891 3.61914C47.6659 3.61914 41.8914 9.39366 41.8914 16.5169C41.8914 23.6401 47.6659 29.4146 54.7891 29.4146Z" fill="white"/>
<path d="M126.5 69.4665C126.5 64.7629 122.674 60.9364 117.97 60.9364H107.465C107.737 60.496 107.97 60.0233 108.152 59.5178C109.218 56.5485 108.335 53.3321 105.901 51.324L93.4321 41.0363C91.9944 34.4676 86.1341 29.5341 79.1401 29.5341C72.4173 29.5341 66.7426 34.0928 65.0354 40.2803L61.8988 29.3006C66.3821 26.7973 69.4222 22.0067 69.4222 16.5175C69.4222 8.44914 62.8582 1.88477 54.7895 1.88477C46.7208 1.88477 40.1564 8.44858 40.1564 16.5169C40.1564 19.6243 41.1331 22.5066 42.7914 24.8786C39.818 27.7033 38.1337 31.5851 38.1337 35.7358V60.9838C33.8501 61.4333 30.5 65.0661 30.5 69.4669C30.5 74.1572 34.3055 77.9749 38.9913 77.9961V83.0389C38.9913 83.997 39.7681 84.7738 40.7262 84.7738C41.6844 84.7738 42.4612 83.997 42.4612 83.0389V77.9966H46.8277V91.6464H42.4612V91.2954C42.4612 90.3373 41.6844 89.5605 40.7262 89.5605C39.7681 89.5605 38.9913 90.3373 38.9913 91.2954V93.3816C38.9913 94.3397 39.7681 95.1165 40.7262 95.1165H48.5626C49.5208 95.1165 50.2976 94.3397 50.2976 93.3816V91.7526L78.194 78.1909L106.543 91.9725C106.595 91.9982 106.649 92.0194 106.703 92.0395V93.3816C106.703 94.3397 107.479 95.1165 108.438 95.1165H116.274C117.232 95.1165 118.009 94.3397 118.009 93.3816V77.9957C122.694 77.9745 126.5 74.157 126.5 69.4665ZM104.886 58.3444C104.436 59.5975 103.231 60.9364 101.2 60.9364H80.8749V58.6928C83.5976 58.3693 86.0919 57.2965 88.1478 55.6853C88.2926 55.7243 88.4441 55.7473 88.6012 55.7473H94.9241C95.8822 55.7473 96.659 54.9705 96.659 54.0124C96.659 53.0543 95.8822 52.2775 94.9241 52.2775H91.3119C92.5887 50.3674 93.428 48.1418 93.6864 45.7444L103.693 54.0004C105.259 55.2926 105.336 57.0915 104.886 58.3444ZM53.3932 58.3444C52.943 57.0915 53.0201 55.2924 54.5864 54.0004L64.5939 45.7436C64.8521 48.1414 65.6913 50.3672 66.9684 52.2775H63.3562C62.3981 52.2775 61.6213 53.0543 61.6213 54.0124C61.6213 54.9705 62.3981 55.7473 63.3562 55.7473H69.3472C69.5906 55.7473 69.8219 55.6969 70.0319 55.6065C72.1064 57.2616 74.6381 58.3644 77.4052 58.6931V60.9368H57.0793C55.0483 60.9364 53.8436 59.5976 53.3932 58.3444ZM79.1401 33.0038C85.2952 33.0038 90.3029 38.0113 90.3029 44.1666C90.3029 50.3218 85.2954 55.3294 79.1401 55.3294C72.9849 55.3294 67.9773 50.3218 67.9773 44.1666C67.9773 38.0113 72.9851 33.0038 79.1401 33.0038ZM54.7891 5.35408C60.9442 5.35408 65.9519 10.3616 65.9519 16.5169C65.9519 22.6721 60.9442 27.6797 54.7891 27.6797C48.6341 27.6797 43.6263 22.6723 43.6263 16.5169C43.6263 10.3615 48.6341 5.35408 54.7891 5.35408ZM45.1001 27.4689C47.6831 29.7568 51.0757 31.1496 54.7891 31.1496C56.132 31.1496 57.4316 30.9641 58.6677 30.6238L62.2541 43.1754L56.9789 47.5275L54.3153 39.5087C54.0133 38.5993 53.0309 38.1069 52.1219 38.4092C51.2126 38.7113 50.7204 39.6932 51.0224 40.6026L54.1094 49.8955L52.3783 51.3238C49.9445 53.3321 49.061 56.5483 50.1279 59.5178C50.3094 60.0234 50.5428 60.496 50.8149 60.9364H41.6036V35.7358C41.6036 32.5847 42.866 29.6338 45.1001 27.4689ZM50.2976 77.9966H70.6572L50.2976 87.8944V77.9966ZM110.172 91.6468V77.9968H114.539V91.6466H110.172V91.6468ZM117.97 74.5268H103.136C102.178 74.5268 101.401 75.3036 101.401 76.2617C101.401 77.2198 102.178 77.9966 103.136 77.9966H106.703V88.1921L85.7309 77.9966H93.7741C94.7323 77.9966 95.5091 77.2198 95.5091 76.2617C95.5091 75.3036 94.7323 74.5268 93.7741 74.5268H39.0301C36.2399 74.5268 33.9699 72.2567 33.9699 69.4665C33.9699 66.6763 36.2399 64.4063 39.0301 64.4063H57.0793H101.2H117.97C120.76 64.4063 123.03 66.6763 123.03 69.4665C123.03 72.2567 120.76 74.5268 117.97 74.5268Z" fill="#0F1C35"/>
</g>
<defs>
<clipPath id="clip0_940_419724">
<rect width="96" height="96" fill="white" transform="translate(30.5 0.5)"/>
</clipPath>
</defs>
</svg>
