<svg width="27" height="27" viewBox="0 0 27 27" fill="none" xmlns="http://www.w3.org/2000/svg">
<path d="M1.29287 13.752C1.29685 15.3279 1.61118 16.8875 2.21791 18.3419C2.82464 19.7963 3.71189 21.1169 4.829 22.2284C5.94612 23.3399 7.27121 24.2205 8.72864 24.8199C10.1861 25.4192 11.7473 25.7257 13.3231 25.7217C14.899 25.7177 16.4586 25.4034 17.913 24.7967C19.3674 24.1899 20.688 23.3027 21.7995 22.1856C22.911 21.0685 23.7916 19.7434 24.3909 18.2859C24.9903 16.8285 25.2968 15.2673 25.2928 13.6914C25.2848 10.5089 24.0128 7.45981 21.7567 5.21506C19.5006 2.97031 16.4451 1.71374 13.2625 1.72178C10.0799 1.72981 7.0309 3.0018 4.78615 5.25791C2.54141 7.51402 1.28484 10.5694 1.29287 13.752Z" stroke="white" stroke-width="2" stroke-linecap="round" stroke-linejoin="round"/>
<path d="M13.276 7.05511L13.2928 13.7218L17.3029 17.7116" stroke="white" stroke-width="2" stroke-linecap="round" stroke-linejoin="round"/>
</svg>
