<svg width="695" height="440" viewBox="0 0 695 440" fill="none" xmlns="http://www.w3.org/2000/svg">
<g filter="url(#filter0_dd_44_2606)">
<g clip-path="url(#clip0_44_2606)">
<rect x="20" y="10.8035" width="654.817" height="389" rx="12" fill="white"/>
<path d="M37.0188 30.8157C35.1539 30.8157 33.6421 29.304 33.6421 27.439C33.6421 25.574 35.1539 24.0623 37.0188 24.0623C38.8838 24.0623 40.3956 25.574 40.3956 27.439C40.3956 29.304 38.8838 30.8157 37.0188 30.8157Z" fill="#E11D48"/>
<g clip-path="url(#clip1_44_2606)">
<path d="M49.1751 30.8157C47.3101 30.8157 45.7983 29.304 45.7983 27.439C45.7983 25.574 47.3101 24.0623 49.1751 24.0623C51.04 24.0623 52.5518 25.574 52.5518 27.439C52.5518 29.304 51.04 30.8157 49.1751 30.8157Z" fill="#FBBF24"/>
</g>
<g clip-path="url(#clip2_44_2606)">
<path d="M61.3313 30.8157C59.4664 30.8157 57.9546 29.304 57.9546 27.439C57.9546 25.574 59.4664 24.0623 61.3313 24.0623C63.1963 24.0623 64.7081 25.574 64.7081 27.439C64.7081 29.304 63.1963 30.8157 61.3313 30.8157Z" fill="#22C55E"/>
</g>
<g filter="url(#filter1_dd_44_2606)">
<rect x="20" y="44.0305" width="654.817" height="355.773" fill="#DBEAFE" shape-rendering="crispEdges"/>
<path d="M20 44.5049H129.685V399.803H20V44.5049Z" fill="#BFDBFE"/>
<path d="M33.1621 78.1847C33.1621 75.0409 36.1086 72.4923 39.7432 72.4923H109.941C113.576 72.4923 116.522 75.0409 116.522 78.1847C116.522 81.3285 113.576 83.877 109.941 83.877H39.7432C36.1086 83.877 33.1621 81.3285 33.1621 78.1847Z" fill="#93C5FD"/>
<path d="M59.4863 118.031C59.4863 116.459 60.9596 115.185 62.7769 115.185H117.619C119.436 115.185 120.91 116.459 120.91 118.031C120.91 119.603 119.436 120.878 117.619 120.878H62.7769C60.9595 120.878 59.4863 119.603 59.4863 118.031Z" fill="white"/>
<path d="M59.4863 148.391C59.4863 146.819 60.9596 145.544 62.7769 145.544H100.618C102.435 145.544 103.909 146.819 103.909 148.391C103.909 149.963 102.435 151.237 100.618 151.237H62.7769C60.9596 151.237 59.4863 149.963 59.4863 148.391Z" fill="white"/>
<path d="M59.4863 178.75C59.4863 177.178 60.9596 175.904 62.7769 175.904H109.941C111.759 175.904 113.232 177.178 113.232 178.75C113.232 180.322 111.759 181.596 109.941 181.596H62.7769C60.9595 181.596 59.4863 180.322 59.4863 178.75Z" fill="white"/>
<path fill-rule="evenodd" clip-rule="evenodd" d="M41.9369 124.198C45.8744 124.198 49.0664 121.437 49.0664 118.031C49.0664 114.626 45.8744 111.865 41.9369 111.865C37.9994 111.865 34.8074 114.626 34.8074 118.031C34.8074 121.437 37.9994 124.198 41.9369 124.198ZM41.9369 125.621C46.783 125.621 50.7116 122.223 50.7116 118.031C50.7116 113.84 46.783 110.442 41.9369 110.442C37.0907 110.442 33.1621 113.84 33.1621 118.031C33.1621 122.223 37.0907 125.621 41.9369 125.621Z" fill="#93C5FD"/>
<path d="M164.783 78.1848C164.783 76.0889 166.748 74.3899 169.171 74.3899H232.788C235.211 74.3899 237.175 76.0889 237.175 78.1848C237.175 80.2807 235.211 81.9797 232.788 81.9797H169.171C166.748 81.9797 164.783 80.2807 164.783 78.1848Z" fill="#BFDBFE"/>
<path fill-rule="evenodd" clip-rule="evenodd" d="M281.324 231.196C281.356 228.49 283.841 226.186 287.035 226.186C288.995 226.186 290.437 227.026 291.358 227.816C291.614 228.036 291.834 228.256 292.018 228.458C292.202 228.256 292.422 228.036 292.678 227.816C293.599 227.026 295.041 226.186 297.001 226.186C300.195 226.186 302.68 228.49 302.712 231.196L302.712 231.196C302.773 236.473 297.871 240.124 292.943 243.017C292.671 243.178 292.348 243.263 292.018 243.263C291.688 243.263 291.365 243.178 291.093 243.017C286.165 240.124 281.262 236.473 281.324 231.196L281.324 231.196ZM292.753 230.064C292.613 230.304 292.329 230.456 292.018 230.456C291.707 230.456 291.423 230.304 291.283 230.064C291.283 230.064 291.283 230.063 291.282 230.062C291.281 230.061 291.28 230.058 291.277 230.054C291.276 230.052 291.275 230.05 291.273 230.047C291.264 230.032 291.248 230.008 291.227 229.975C291.184 229.91 291.116 229.813 291.025 229.695C290.841 229.457 290.565 229.141 290.199 228.826C289.462 228.193 288.412 227.609 287.035 227.609C284.804 227.609 282.993 229.231 282.969 231.21M292.753 230.064C292.753 230.064 292.753 230.063 292.754 230.062C292.755 230.06 292.758 230.055 292.763 230.047C292.772 230.032 292.788 230.008 292.809 229.975C292.852 229.91 292.92 229.813 293.011 229.695C293.195 229.457 293.471 229.141 293.837 228.826C294.574 228.193 295.624 227.609 297.001 227.609C299.232 227.609 301.043 229.231 301.067 231.21C301.118 235.657 296.989 238.922 292.019 241.84L292.018 241.84L292.017 241.84C287.046 238.922 282.917 235.657 282.969 231.21" fill="white"/>
<path d="M164.784 234.725C164.784 232.629 166.748 230.93 169.171 230.93H198.786C201.209 230.93 203.173 232.629 203.173 234.725C203.173 236.821 201.209 238.52 198.786 238.52H169.171C166.748 238.52 164.784 236.821 164.784 234.725Z" fill="#BFDBFE"/>
<path d="M211.948 234.725C211.948 232.629 213.912 230.93 216.335 230.93H265.693C268.117 230.93 270.081 232.629 270.081 234.725C270.081 236.821 268.117 238.52 265.693 238.52H216.335C213.912 238.52 211.948 236.821 211.948 234.725Z" fill="#BFDBFE"/>
<path d="M164.784 271.725C164.784 270.153 166.257 268.879 168.074 268.879H214.142C215.959 268.879 217.432 270.153 217.432 271.725C217.432 273.297 215.959 274.571 214.142 274.571H168.074C166.257 274.571 164.784 273.297 164.784 271.725Z" fill="white"/>
<path d="M164.784 285.007C164.784 283.436 166.257 282.161 168.074 282.161H238.821C240.638 282.161 242.111 283.436 242.111 285.007C242.111 286.579 240.638 287.854 238.821 287.854H168.074C166.257 287.854 164.784 286.579 164.784 285.007Z" fill="white"/>
<path d="M226.207 271.725C226.207 270.153 227.68 268.879 229.498 268.879H284.34C286.157 268.879 287.63 270.153 287.63 271.725C287.63 273.297 286.157 274.571 284.34 274.571H229.498C227.68 274.571 226.207 273.297 226.207 271.725Z" fill="white"/>
<path d="M164.783 115.185C164.783 113.613 166.257 112.339 168.074 112.339H214.141C215.959 112.339 217.432 113.613 217.432 115.185C217.432 116.757 215.959 118.031 214.141 118.031H168.074C166.257 118.031 164.783 116.757 164.783 115.185Z" fill="white"/>
<path d="M164.783 128.467C164.783 126.895 166.257 125.621 168.074 125.621H281.597C283.415 125.621 284.888 126.895 284.888 128.467C284.888 130.039 283.415 131.313 281.597 131.313H168.074C166.257 131.313 164.783 130.039 164.783 128.467Z" fill="white"/>
<path d="M226.207 115.185C226.207 113.613 227.68 112.339 229.497 112.339H354.538C356.355 112.339 357.828 113.613 357.828 115.185C357.828 116.757 356.355 118.031 354.538 118.031H229.497C227.68 118.031 226.207 116.757 226.207 115.185Z" fill="white"/>
<path fill-rule="evenodd" clip-rule="evenodd" d="M49.615 142.224H35.356V154.557H49.615V142.224ZM33.7107 140.801V155.98H51.2602V140.801H33.7107Z" fill="#60A5FA"/>
<g clip-path="url(#clip3_44_2606)">
<rect x="400.057" y="78.1848" width="109.685" height="129.976" rx="16.2083" fill="white"/>
<path d="M473.121 208.273C473.121 241.163 442.551 267.825 404.841 267.825C367.131 267.825 336.561 241.163 336.561 208.273C336.561 175.383 367.131 148.72 404.841 148.72C442.551 148.72 473.121 175.383 473.121 208.273Z" fill="#FACC15"/>
<path fill-rule="evenodd" clip-rule="evenodd" d="M524.968 128.805L489.291 97.9454L453.614 128.805L489.291 159.664L524.968 128.805ZM489.291 95.262L450.512 128.805L489.291 162.347L528.07 128.805L489.291 95.262Z" fill="#BFDBFE"/>
</g>
<path d="M42.4855 172.109L51.2602 185.255H33.7107L42.4855 172.109Z" fill="#93C5FD"/>
<rect x="527.291" y="78.1848" width="109.685" height="95.8215" rx="16.2083" fill="white"/>
<path fill-rule="evenodd" clip-rule="evenodd" d="M576.631 149.632C587.567 149.632 596.357 142.035 596.357 132.743C596.357 123.451 587.567 115.854 576.631 115.854C565.696 115.854 556.906 123.451 556.906 132.743C556.906 142.035 565.696 149.632 576.631 149.632ZM576.631 154.376C590.554 154.376 601.841 144.69 601.841 132.743C601.841 120.796 590.554 111.111 576.631 111.111C562.708 111.111 551.422 120.796 551.422 132.743C551.422 144.69 562.708 154.376 576.631 154.376Z" fill="#BFDBFE"/>
<path d="M588.089 125.896L595.342 102.484L615.156 119.623L588.089 125.896Z" fill="#FACC15"/>
<g clip-path="url(#clip4_44_2606)">
<rect x="400.057" y="223.34" width="109.685" height="145.155" rx="16.2083" fill="white"/>
<path fill-rule="evenodd" clip-rule="evenodd" d="M502.886 386.996C533.629 386.996 558.551 365.439 558.551 338.848C558.551 312.256 533.629 290.7 502.886 290.7C472.143 290.7 447.221 312.256 447.221 338.848C447.221 365.439 472.143 386.996 502.886 386.996ZM502.886 391.739C536.658 391.739 564.035 368.059 564.035 338.848C564.035 309.636 536.658 285.956 502.886 285.956C469.114 285.956 441.737 309.636 441.737 338.848C441.737 368.059 469.114 391.739 502.886 391.739Z" fill="#FACC15"/>
<path d="M457.641 266.615C457.641 275.581 449.17 282.85 438.721 282.85C428.271 282.85 419.8 275.581 419.8 266.615C419.8 257.648 428.271 250.379 438.721 250.379C449.17 250.379 457.641 257.648 457.641 266.615Z" fill="#BFDBFE"/>
<path fill-rule="evenodd" clip-rule="evenodd" d="M438.721 281.427C448.274 281.427 455.996 274.785 455.996 266.615C455.996 258.444 448.274 251.802 438.721 251.802C429.167 251.802 421.445 258.444 421.445 266.615C421.445 274.785 429.167 281.427 438.721 281.427ZM438.721 282.85C449.17 282.85 457.641 275.581 457.641 266.615C457.641 257.648 449.17 250.379 438.721 250.379C428.271 250.379 419.8 257.648 419.8 266.615C419.8 275.581 428.271 282.85 438.721 282.85Z" fill="#BFDBFE"/>
</g>
<g clip-path="url(#clip5_44_2606)">
<rect x="527.291" y="189.186" width="109.685" height="162.232" rx="16.2083" fill="white"/>
<path d="M662.203 306.117C662.203 317.775 651.399 327.226 638.072 327.226C624.745 327.226 613.942 317.775 613.942 306.117C613.942 294.458 624.745 285.007 638.072 285.007C651.399 285.007 662.203 294.458 662.203 306.117Z" fill="white"/>
<path fill-rule="evenodd" clip-rule="evenodd" d="M638.072 325.803C650.473 325.803 660.558 317.004 660.558 306.117C660.558 295.229 650.473 286.431 638.072 286.431C625.672 286.431 615.587 295.229 615.587 306.117C615.587 317.004 625.672 325.803 638.072 325.803ZM638.072 327.226C651.399 327.226 662.203 317.775 662.203 306.117C662.203 294.458 651.399 285.007 638.072 285.007C624.745 285.007 613.942 294.458 613.942 306.117C613.942 317.775 624.745 327.226 638.072 327.226Z" fill="#BFDBFE"/>
<path d="M618.329 246.347C618.329 261.935 603.842 274.571 585.972 274.571C568.102 274.571 553.615 261.935 553.615 246.347C553.615 230.759 568.102 218.122 585.972 218.122C603.842 218.122 618.329 230.759 618.329 246.347Z" fill="#BFDBFE"/>
<path d="M547.583 300.661L549.13 304.512L553.842 304.595L550.086 307.057L551.451 310.959L547.583 308.631L543.714 310.959L545.079 307.057L541.324 304.595L546.035 304.512L547.583 300.661Z" fill="#FACC15"/>
<path d="M570.068 300.661L571.615 304.512L576.327 304.595L572.572 307.057L573.936 310.959L570.068 308.631L566.2 310.959L567.564 307.057L563.809 304.595L568.521 304.512L570.068 300.661Z" fill="#FACC15"/>
<path d="M592.553 300.661L594.101 304.512L598.812 304.595L595.057 307.057L596.422 310.959L592.553 308.631L588.685 310.959L590.05 307.057L586.294 304.595L591.006 304.512L592.553 300.661Z" fill="#FACC15"/>
<path d="M615.039 300.661L616.586 304.512L621.298 304.595L617.542 307.057L618.907 310.959L615.039 308.631L611.17 310.959L612.535 307.057L608.78 304.595L613.491 304.512L615.039 300.661Z" fill="#FACC15"/>
<path d="M637.524 300.661L639.071 304.512L643.783 304.595L640.028 307.057L641.392 310.959L637.524 308.631L633.656 310.959L635.02 307.057L631.265 304.595L635.977 304.512L637.524 300.661Z" fill="#FACC15"/>
</g>
</g>
</g>
</g>
<defs>
<filter id="filter0_dd_44_2606" x="0" y="0.803467" width="694.817" height="439" filterUnits="userSpaceOnUse" color-interpolation-filters="sRGB">
<feFlood flood-opacity="0" result="BackgroundImageFix"/>
<feColorMatrix in="SourceAlpha" type="matrix" values="0 0 0 0 0 0 0 0 0 0 0 0 0 0 0 0 0 0 127 0" result="hardAlpha"/>
<feOffset/>
<feGaussianBlur stdDeviation="5"/>
<feColorMatrix type="matrix" values="0 0 0 0 0 0 0 0 0 0 0 0 0 0 0 0 0 0 0.07 0"/>
<feBlend mode="normal" in2="BackgroundImageFix" result="effect1_dropShadow_44_2606"/>
<feColorMatrix in="SourceAlpha" type="matrix" values="0 0 0 0 0 0 0 0 0 0 0 0 0 0 0 0 0 0 127 0" result="hardAlpha"/>
<feMorphology radius="5" operator="erode" in="SourceAlpha" result="effect2_dropShadow_44_2606"/>
<feOffset dy="20"/>
<feGaussianBlur stdDeviation="12.5"/>
<feColorMatrix type="matrix" values="0 0 0 0 0 0 0 0 0 0 0 0 0 0 0 0 0 0 0.1 0"/>
<feBlend mode="normal" in2="effect1_dropShadow_44_2606" result="effect2_dropShadow_44_2606"/>
<feBlend mode="normal" in="SourceGraphic" in2="effect2_dropShadow_44_2606" result="shape"/>
</filter>
<filter id="filter1_dd_44_2606" x="-18" y="29.0305" width="730.817" height="433.773" filterUnits="userSpaceOnUse" color-interpolation-filters="sRGB">
<feFlood flood-opacity="0" result="BackgroundImageFix"/>
<feColorMatrix in="SourceAlpha" type="matrix" values="0 0 0 0 0 0 0 0 0 0 0 0 0 0 0 0 0 0 127 0" result="hardAlpha"/>
<feOffset/>
<feGaussianBlur stdDeviation="7.5"/>
<feComposite in2="hardAlpha" operator="out"/>
<feColorMatrix type="matrix" values="0 0 0 0 0 0 0 0 0 0 0 0 0 0 0 0 0 0 0.07 0"/>
<feBlend mode="normal" in2="BackgroundImageFix" result="effect1_dropShadow_44_2606"/>
<feColorMatrix in="SourceAlpha" type="matrix" values="0 0 0 0 0 0 0 0 0 0 0 0 0 0 0 0 0 0 127 0" result="hardAlpha"/>
<feMorphology radius="12" operator="erode" in="SourceAlpha" result="effect2_dropShadow_44_2606"/>
<feOffset dy="25"/>
<feGaussianBlur stdDeviation="25"/>
<feColorMatrix type="matrix" values="0 0 0 0 0 0 0 0 0 0 0 0 0 0 0 0 0 0 0.25 0"/>
<feBlend mode="normal" in2="effect1_dropShadow_44_2606" result="effect2_dropShadow_44_2606"/>
<feBlend mode="normal" in="SourceGraphic" in2="effect2_dropShadow_44_2606" result="shape"/>
</filter>
<clipPath id="clip0_44_2606">
<rect x="20" y="10.8035" width="654.817" height="389" rx="12" fill="white"/>
</clipPath>
<clipPath id="clip1_44_2606">
<rect width="8.10417" height="8.10417" fill="white" transform="translate(45.123 23.3649)"/>
</clipPath>
<clipPath id="clip2_44_2606">
<rect width="8.10417" height="8.10417" fill="white" transform="translate(57.2793 23.3649)"/>
</clipPath>
<clipPath id="clip3_44_2606">
<rect x="400.057" y="78.1848" width="109.685" height="129.976" rx="16.2083" fill="white"/>
</clipPath>
<clipPath id="clip4_44_2606">
<rect x="400.057" y="223.34" width="109.685" height="145.155" rx="16.2083" fill="white"/>
</clipPath>
<clipPath id="clip5_44_2606">
<rect x="527.291" y="189.186" width="109.685" height="162.232" rx="16.2083" fill="white"/>
</clipPath>
</defs>
</svg>
