<svg width="32" height="32" viewBox="0 0 32 32" fill="none" xmlns="http://www.w3.org/2000/svg">
<path d="M19.7334 10.4003C19.7334 12.4622 18.0619 14.1337 16 14.1337C13.9382 14.1337 12.2667 12.4622 12.2667 10.4003C12.2667 8.33846 13.9382 6.66699 16 6.66699C18.0619 6.66699 19.7334 8.33846 19.7334 10.4003Z" fill="#DB1471"/>
<path d="M25.9556 12.8892C25.9556 14.2638 24.8413 15.3781 23.4667 15.3781C22.0921 15.3781 20.9778 14.2638 20.9778 12.8892C20.9778 11.5146 22.0921 10.4003 23.4667 10.4003C24.8413 10.4003 25.9556 11.5146 25.9556 12.8892Z" fill="#DB1471"/>
<path d="M20.9778 21.6003C20.9778 18.8512 18.7492 16.6225 16 16.6225C13.2509 16.6225 11.0223 18.8512 11.0223 21.6003V25.3337H20.9778V21.6003Z" fill="#DB1471"/>
<path d="M11.0223 12.8892C11.0223 14.2638 9.90796 15.3781 8.53338 15.3781C7.15881 15.3781 6.04449 14.2638 6.04449 12.8892C6.04449 11.5146 7.15881 10.4003 8.53338 10.4003C9.90796 10.4003 11.0223 11.5146 11.0223 12.8892Z" fill="#DB1471"/>
<path d="M23.4667 25.3337V21.6003C23.4667 20.2885 23.1284 19.0557 22.5343 17.9844C22.8323 17.9077 23.1448 17.867 23.4667 17.867C25.5286 17.867 27.2 19.5385 27.2 21.6003V25.3337H23.4667Z" fill="#DB1471"/>
<path d="M9.4658 17.9844C8.87168 19.0557 8.53338 20.2885 8.53338 21.6003V25.3337H4.80005V21.6003C4.80005 19.5385 6.47152 17.867 8.53338 17.867C8.85533 17.867 9.16776 17.9077 9.4658 17.9844Z" fill="#DB1471"/>
</svg>
