<svg width="31" height="31" viewBox="0 0 31 31" fill="none" xmlns="http://www.w3.org/2000/svg">
<rect x="0.936035" y="0.5" width="29.7874" height="29.8235" rx="14.8937" fill="white"/>
<path d="M23.2223 10.6904C22.7304 10.9026 22.2134 11.0503 21.6838 11.1299C21.9314 11.0874 22.2957 10.6408 22.4407 10.4601C22.661 10.1874 22.8288 9.87621 22.9358 9.54218C22.9358 9.51737 22.9605 9.48193 22.9358 9.46421C22.9233 9.45738 22.9093 9.45381 22.8951 9.45381C22.8809 9.45381 22.8669 9.45738 22.8544 9.46421C22.2795 9.77623 21.6675 10.0144 21.0331 10.173C21.011 10.1798 20.9875 10.1804 20.965 10.1748C20.9426 10.1692 20.9221 10.1575 20.9058 10.1411C20.8564 10.0822 20.8032 10.0266 20.7466 9.97455C20.4879 9.74222 20.1943 9.55207 19.8766 9.41105C19.4478 9.23476 18.9847 9.15841 18.5221 9.18777C18.0733 9.21618 17.6351 9.33681 17.2348 9.54218C16.8406 9.75869 16.4941 10.0528 16.2163 10.4069C15.9239 10.7714 15.7129 11.1943 15.5974 11.6473C15.5021 12.0782 15.4912 12.5236 15.5655 12.9586C15.5655 13.0331 15.5655 13.0437 15.5019 13.0331C12.9803 12.6609 10.9114 11.7643 9.22087 9.83988C9.1466 9.75482 9.1077 9.75482 9.04757 9.83988C8.31196 10.9598 8.66916 12.7318 9.58867 13.6072C9.71245 13.7241 9.83977 13.8375 9.97416 13.9439C9.55257 13.9139 9.14128 13.7994 8.76465 13.6072C8.69391 13.5611 8.65501 13.5859 8.65148 13.671C8.64145 13.7889 8.64145 13.9075 8.65148 14.0254C8.72527 14.5905 8.94752 15.1259 9.29549 15.5767C9.64346 16.0275 10.1047 16.3776 10.632 16.5913C10.7605 16.6464 10.8944 16.688 11.0316 16.7153C10.6413 16.7923 10.241 16.8043 9.84685 16.7507C9.76197 16.733 9.73014 16.7791 9.76197 16.8606C10.2818 18.2782 11.41 18.7106 12.2376 18.9516C12.3508 18.9693 12.4639 18.9693 12.5912 18.9977C12.5912 18.9977 12.5912 18.9977 12.57 19.0189C12.326 19.4655 11.3393 19.7667 10.8866 19.9227C10.0603 20.2201 9.17939 20.3338 8.30489 20.2558C8.16696 20.2345 8.13513 20.2381 8.09977 20.2558C8.0644 20.2735 8.09977 20.3125 8.13867 20.3479C8.3155 20.4649 8.49233 20.5677 8.67623 20.6669C9.22371 20.9662 9.80251 21.2039 10.4021 21.3757C13.5072 22.2334 17.0014 21.6025 19.332 19.2812C21.164 17.4596 21.8076 14.9468 21.8076 12.4306C21.8076 12.3349 21.9243 12.2782 21.9915 12.2286C22.455 11.8667 22.8636 11.4393 23.2046 10.9598C23.2636 10.8883 23.2939 10.7973 23.2894 10.7046C23.2894 10.6515 23.2894 10.6621 23.2223 10.6904Z" fill="#252533"/>
</svg>
