<svg width="20" height="20" viewBox="0 0 20 20" fill="none" xmlns="http://www.w3.org/2000/svg">
<path d="M4.16659 5H19.1666V15H4.16659V5ZM11.6666 7.5C12.3296 7.5 12.9655 7.76339 13.4344 8.23223C13.9032 8.70107 14.1666 9.33696 14.1666 10C14.1666 10.663 13.9032 11.2989 13.4344 11.7678C12.9655 12.2366 12.3296 12.5 11.6666 12.5C11.0035 12.5 10.3677 12.2366 9.89882 11.7678C9.42998 11.2989 9.16659 10.663 9.16659 10C9.16659 9.33696 9.42998 8.70107 9.89882 8.23223C10.3677 7.76339 11.0035 7.5 11.6666 7.5ZM7.49992 6.66667C7.49992 7.10869 7.32432 7.53262 7.01176 7.84518C6.6992 8.15774 6.27528 8.33333 5.83325 8.33333V11.6667C6.27528 11.6667 6.6992 11.8423 7.01176 12.1548C7.32432 12.4674 7.49992 12.8913 7.49992 13.3333H15.8333C15.8333 12.8913 16.0088 12.4674 16.3214 12.1548C16.634 11.8423 17.0579 11.6667 17.4999 11.6667V8.33333C17.0579 8.33333 16.634 8.15774 16.3214 7.84518C16.0088 7.53262 15.8333 7.10869 15.8333 6.66667H7.49992ZM0.833252 8.33333H2.49992V16.6667H15.8333V18.3333H0.833252V8.33333Z" fill="#71839B"/>
</svg>
