<svg width="18" height="20" viewBox="0 0 18 20" fill="none" xmlns="http://www.w3.org/2000/svg">
<path d="M15.6667 0H2.33341C1.41675 0 0.675081 0.9 0.675081 2L0.666748 20L4.00008 16H15.6667C16.5834 16 17.3334 15.1 17.3334 14V2C17.3334 0.9 16.5834 0 15.6667 0ZM15.6667 14H3.30841L2.81675 14.59L2.33341 15.17V2H15.6667V14ZM7.75008 12H14.0001V10H9.41675L7.75008 12ZM10.9667 6.13C11.1334 5.93 11.1334 5.62 10.9667 5.42L9.49175 3.65C9.32508 3.45 9.06675 3.45 8.90008 3.65L4.00008 9.53V12H6.05842L10.9667 6.13Z" fill="#71839B"/>
</svg>
