<svg width="22" height="22" viewBox="0 0 22 22" fill="none" xmlns="http://www.w3.org/2000/svg">
<path d="M3.48186 20.5046L3.93585 19.6136H3.93585L3.48186 20.5046ZM1.49542 18.5181L2.38643 18.0641L1.49542 18.5181ZM20.5046 18.5181L19.6136 18.0641V18.0641L20.5046 18.5181ZM18.5181 20.5046L18.0641 19.6136H18.0641L18.5181 20.5046ZM18.5181 1.49542L18.0641 2.38643L18.5181 1.49542ZM20.5046 3.48186L19.6136 3.93585V3.93585L20.5046 3.48186ZM3.48186 1.49542L3.93585 2.38643L3.48186 1.49542ZM1.49542 3.48186L2.38643 3.93585L1.49542 3.48186ZM16.9649 14.6443C17.4714 14.8646 18.0605 14.6325 18.2807 14.126C18.5009 13.6195 18.2688 13.0304 17.7624 12.8102L16.9649 14.6443ZM17.8262 8.25022C18.3158 7.99475 18.5057 7.39072 18.2502 6.90107C17.9948 6.41142 17.3907 6.22158 16.9011 6.47705L17.8262 8.25022ZM8.27273 2H13.7273V0H8.27273V2ZM20 8.27273V13.7273H22V8.27273H20ZM13.7273 20H8.27273V22H13.7273V20ZM2 13.7273V8.27273H0V13.7273H2ZM8.27273 20C6.98338 20 6.07651 19.9992 5.36871 19.9414C4.67259 19.8845 4.25755 19.7775 3.93585 19.6136L3.02787 21.3956C3.6785 21.7271 4.38604 21.8678 5.20585 21.9348C6.01398 22.0008 7.01638 22 8.27273 22V20ZM0 13.7273C0 14.9836 -0.000777721 15.986 0.0652492 16.7942C0.13223 17.614 0.272905 18.3215 0.604418 18.9721L2.38643 18.0641C2.22252 17.7425 2.11548 17.3274 2.05861 16.6313C2.00078 15.9235 2 15.0166 2 13.7273H0ZM3.93585 19.6136C3.26873 19.2737 2.72635 18.7313 2.38643 18.0641L0.604418 18.9721C1.13608 20.0156 1.98443 20.8639 3.02787 21.3956L3.93585 19.6136ZM20 13.7273C20 15.0166 19.9992 15.9235 19.9414 16.6313C19.8845 17.3274 19.7775 17.7425 19.6136 18.0641L21.3956 18.9721C21.7271 18.3215 21.8678 17.614 21.9348 16.7942C22.0008 15.986 22 14.9836 22 13.7273H20ZM13.7273 22C14.9836 22 15.986 22.0008 16.7942 21.9348C17.614 21.8678 18.3215 21.7271 18.9721 21.3956L18.0641 19.6136C17.7425 19.7775 17.3274 19.8845 16.6313 19.9414C15.9235 19.9992 15.0166 20 13.7273 20V22ZM19.6136 18.0641C19.2737 18.7313 18.7313 19.2737 18.0641 19.6136L18.9721 21.3956C20.0156 20.8639 20.8639 20.0156 21.3956 18.9721L19.6136 18.0641ZM13.7273 2C15.0166 2 15.9235 2.00078 16.6313 2.05861C17.3274 2.11548 17.7425 2.22252 18.0641 2.38643L18.9721 0.604418C18.3215 0.272905 17.614 0.13223 16.7942 0.0652492C15.986 -0.000777721 14.9836 0 13.7273 0V2ZM22 8.27273C22 7.01638 22.0008 6.01398 21.9348 5.20585C21.8678 4.38604 21.7271 3.6785 21.3956 3.02787L19.6136 3.93585C19.7775 4.25755 19.8845 4.67259 19.9414 5.36871C19.9992 6.07651 20 6.98338 20 8.27273H22ZM18.0641 2.38643C18.7313 2.72635 19.2737 3.26873 19.6136 3.93585L21.3956 3.02787C20.8639 1.98443 20.0156 1.13608 18.9721 0.604418L18.0641 2.38643ZM8.27273 0C7.01638 0 6.01398 -0.000777721 5.20585 0.0652492C4.38604 0.13223 3.6785 0.272905 3.02787 0.604418L3.93585 2.38643C4.25755 2.22252 4.67259 2.11548 5.36871 2.05861C6.07651 2.00078 6.98338 2 8.27273 2V0ZM2 8.27273C2 6.98338 2.00078 6.07651 2.05861 5.36871C2.11548 4.67259 2.22252 4.25755 2.38643 3.93585L0.604418 3.02787C0.272905 3.6785 0.13223 4.38604 0.0652492 5.20585C-0.000777721 6.01398 0 7.01638 0 8.27273H2ZM3.02787 0.604418C1.98443 1.13608 1.13608 1.98443 0.604418 3.02787L2.38643 3.93585C2.72635 3.26873 3.26873 2.72635 3.93585 2.38643L3.02787 0.604418ZM8.18182 6.90909C8.18182 7.612 7.612 8.18182 6.90909 8.18182V10.1818C8.71657 10.1818 10.1818 8.71657 10.1818 6.90909H8.18182ZM6.90909 8.18182C6.20618 8.18182 5.63636 7.612 5.63636 6.90909H3.63636C3.63636 8.71657 5.10161 10.1818 6.90909 10.1818V8.18182ZM5.63636 6.90909C5.63636 6.20618 6.20618 5.63636 6.90909 5.63636V3.63636C5.10161 3.63636 3.63636 5.10161 3.63636 6.90909H5.63636ZM6.90909 5.63636C7.612 5.63636 8.18182 6.20618 8.18182 6.90909H10.1818C10.1818 5.10161 8.71657 3.63636 6.90909 3.63636V5.63636ZM8.18182 15.0909C8.18182 15.7938 7.612 16.3636 6.90909 16.3636V18.3636C8.71657 18.3636 10.1818 16.8984 10.1818 15.0909H8.18182ZM6.90909 16.3636C6.20618 16.3636 5.63636 15.7938 5.63636 15.0909H3.63636C3.63636 16.8984 5.10161 18.3636 6.90909 18.3636V16.3636ZM5.63636 15.0909C5.63636 14.388 6.20618 13.8182 6.90909 13.8182V11.8182C5.10161 11.8182 3.63636 13.2834 3.63636 15.0909H5.63636ZM6.90909 13.8182C7.612 13.8182 8.18182 14.388 8.18182 15.0909H10.1818C10.1818 13.2834 8.71657 11.8182 6.90909 11.8182V13.8182ZM6.51037 10.0989L10.312 11.7518L11.1095 9.91764L7.30782 8.26475L6.51037 10.0989ZM10.312 11.7518L16.9649 14.6443L17.7624 12.8102L11.1095 9.91764L10.312 11.7518ZM7.37166 13.7048L11.1733 11.7213L10.2482 9.94813L6.44653 11.9316L7.37166 13.7048ZM11.1733 11.7213L17.8262 8.25022L16.9011 6.47705L10.2482 9.94813L11.1733 11.7213Z" fill="#71839B"/>
</svg>
