<svg width="20" height="20" viewBox="0 0 20 20" fill="none" xmlns="http://www.w3.org/2000/svg">
<path d="M10.8917 8.67569C11.3979 7.96841 11.6701 7.12046 11.6701 6.25069C11.6701 5.38093 11.3979 4.53298 10.8917 3.8257C11.3655 3.50232 11.9265 3.33083 12.5001 3.33403C13.2736 3.33403 14.0155 3.64132 14.5625 4.1883C15.1095 4.73528 15.4167 5.47715 15.4167 6.25069C15.4167 7.02424 15.1095 7.76611 14.5625 8.31309C14.0155 8.86007 13.2736 9.16736 12.5001 9.16736C11.9265 9.17056 11.3655 8.99907 10.8917 8.67569ZM4.58341 6.25069C4.58341 5.67383 4.75447 5.10993 5.07496 4.63028C5.39545 4.15064 5.85097 3.7768 6.38392 3.55605C6.91687 3.33529 7.50332 3.27753 8.0691 3.39007C8.63487 3.50261 9.15457 3.7804 9.56248 4.1883C9.97038 4.5962 10.2482 5.1159 10.3607 5.68168C10.4732 6.24746 10.4155 6.8339 10.1947 7.36685C9.97397 7.89981 9.60014 8.35533 9.12049 8.67582C8.64085 8.9963 8.07694 9.16736 7.50008 9.16736C6.72653 9.16736 5.98467 8.86007 5.43769 8.31309C4.89071 7.76611 4.58341 7.02424 4.58341 6.25069ZM6.25008 6.25069C6.25008 6.49792 6.32339 6.7396 6.46074 6.94516C6.5981 7.15072 6.79332 7.31094 7.02173 7.40554C7.25013 7.50015 7.50147 7.52491 7.74394 7.47668C7.98642 7.42845 8.20915 7.30939 8.38397 7.13458C8.55878 6.95976 8.67783 6.73703 8.72606 6.49456C8.77429 6.25208 8.74954 6.00075 8.65493 5.77234C8.56032 5.54393 8.4001 5.34871 8.19454 5.21136C7.98898 5.07401 7.74731 5.00069 7.50008 5.00069C7.16856 5.00069 6.85062 5.13239 6.6162 5.36681C6.38178 5.60123 6.25008 5.91917 6.25008 6.25069ZM13.3334 14.1674V15.834H1.66675V14.1674C1.66675 14.1674 1.66675 10.834 7.50008 10.834C13.3334 10.834 13.3334 14.1674 13.3334 14.1674ZM11.6667 14.1674C11.5501 13.5174 10.5584 12.5007 7.50008 12.5007C4.44175 12.5007 3.39175 13.5924 3.33341 14.1674M13.2917 10.834C13.8025 11.2313 14.2201 11.7356 14.5152 12.3114C14.8104 12.8873 14.9758 13.5207 15.0001 14.1674V15.834H18.3334V14.1674C18.3334 14.1674 18.3334 11.1424 13.2834 10.834H13.2917Z" fill="#71839B"/>
</svg>
