<svg width="43" height="42" viewBox="0 0 43 42" fill="none" xmlns="http://www.w3.org/2000/svg">
<path d="M19.8234 4.39058C20.2724 3.00861 22.2276 3.00861 22.6766 4.39058L25.628 13.4742C25.8288 14.0922 26.4048 14.5106 27.0546 14.5106H36.6057C38.0587 14.5106 38.6629 16.3701 37.4873 17.2242L29.7604 22.8381C29.2346 23.2201 29.0147 23.8972 29.2155 24.5152L32.1669 33.5988C32.6159 34.9807 31.0342 36.1299 29.8586 35.2758L22.1317 29.6619C21.6059 29.2799 20.8941 29.2799 20.3683 29.6619L12.6414 35.2758C11.4658 36.1299 9.88407 34.9807 10.3331 33.5988L13.2845 24.5152C13.4853 23.8972 13.2654 23.2201 12.7396 22.8381L5.01266 17.2242C3.83709 16.3701 4.44125 14.5106 5.89434 14.5106H15.4454C16.0952 14.5106 16.6712 14.0922 16.872 13.4742L19.8234 4.39058Z" fill="#FF9F0A"/>
</svg>
